<?xml version="1.0" encoding="utf-8"?>
<!-- Generator: Adobe Illustrator 19.1.0, SVG Export Plug-In . SVG Version: 6.00 Build 0)  -->
<svg version="1.1" id="on" xmlns="http://www.w3.org/2000/svg" xmlns:xlink="http://www.w3.org/1999/xlink" x="0px" y="0px"
	 viewBox="-275 269 24 24" style="enable-background:new -275 269 24 24;" xml:space="preserve" preserveAspectRatio="none">
<style type="text/css">
	.st0{fill:#999999;}
</style>
<g>
	<path class="st0" d="M-263.03,277c-0.13,0-0.24,0.05-0.33,0.14l-2.44,1.99h-2.62c-0.13,0-0.24,0.05-0.33,0.14
		c-0.09,0.09-0.14,0.2-0.14,0.33v2.81c0,0.13,0.05,0.24,0.14,0.33c0.09,0.09,0.2,0.14,0.33,0.14h2.62l2.44,1.99
		c0.09,0.09,0.2,0.14,0.33,0.14c0.13,0,0.24-0.05,0.33-0.14s0.14-0.2,0.14-0.33v-7.06c0-0.13-0.05-0.24-0.14-0.33
		C-262.79,277.05-262.9,277-263.03,277L-263.03,277z"/>
	<path class="st0" d="M-259.3,282.04c0.21-0.32,0.31-0.66,0.31-1.04c0-0.37-0.1-0.72-0.31-1.04c-0.21-0.32-0.48-0.55-0.82-0.68
		c-0.05-0.02-0.11-0.04-0.18-0.04c-0.13,0-0.24,0.05-0.33,0.14c-0.09,0.09-0.14,0.2-0.14,0.33c0,0.1,0.03,0.19,0.09,0.26
		c0.06,0.07,0.13,0.13,0.21,0.18c0.08,0.05,0.17,0.11,0.25,0.17c0.08,0.06,0.15,0.15,0.21,0.26c0.06,0.11,0.09,0.25,0.09,0.42
		c0,0.17-0.03,0.3-0.09,0.42c-0.06,0.11-0.13,0.2-0.21,0.26c-0.08,0.06-0.17,0.12-0.25,0.17c-0.08,0.05-0.15,0.11-0.21,0.18
		c-0.06,0.07-0.09,0.16-0.09,0.26c0,0.13,0.05,0.24,0.14,0.33c0.09,0.09,0.2,0.14,0.33,0.14c0.07,0,0.13-0.01,0.18-0.04
		C-259.78,282.58-259.51,282.35-259.3,282.04z"/>
	<path class="st0" d="M-257.74,283.07c0.41-0.63,0.62-1.32,0.62-2.07c0-0.75-0.21-1.44-0.62-2.07c-0.41-0.63-0.96-1.09-1.65-1.38
		c-0.06-0.02-0.13-0.04-0.19-0.04c-0.13,0-0.24,0.05-0.33,0.14c-0.09,0.09-0.14,0.2-0.14,0.33c0,0.19,0.1,0.33,0.29,0.43
		c0.27,0.14,0.46,0.25,0.56,0.32c0.36,0.26,0.64,0.59,0.85,0.99c0.2,0.4,0.3,0.82,0.3,1.27c0,0.45-0.1,0.87-0.3,1.27
		c-0.2,0.4-0.48,0.73-0.85,0.99c-0.1,0.07-0.28,0.18-0.56,0.32c-0.19,0.1-0.29,0.24-0.29,0.43c0,0.13,0.05,0.24,0.14,0.33
		c0.09,0.09,0.2,0.14,0.34,0.14c0.06,0,0.12-0.01,0.18-0.04C-258.7,284.16-258.15,283.7-257.74,283.07z"/>
</g>
<g>
	<path class="st0" d="M-263,271c5.51,0,10,4.49,10,10s-4.49,10-10,10s-10-4.49-10-10S-268.51,271-263,271 M-263,270
		c-6.08,0-11,4.92-11,11s4.92,11,11,11s11-4.92,11-11S-256.92,270-263,270L-263,270z"/>
</g>
</svg>
