<?xml version="1.0" encoding="utf-8"?>
<!-- Generator: Adobe Illustrator 19.1.0, SVG Export Plug-In . SVG Version: 6.00 Build 0)  -->
<svg version="1.1" id="off_x5F_hover" xmlns="http://www.w3.org/2000/svg" xmlns:xlink="http://www.w3.org/1999/xlink" x="0px"
	 y="0px" viewBox="-275 269 24 24" style="enable-background:new -275 269 24 24;" xml:space="preserve" preserveAspectRatio="none">
<style type="text/css">
	.st0{fill:#999999;}
</style>
<g>
	<circle class="st0" cx="-263" cy="281" r="11"/>
</g>
<g>
	<path d="M-261.48,277c-0.13,0-0.24,0.05-0.33,0.14l-2.44,1.99h-2.62c-0.13,0-0.24,0.05-0.33,0.14c-0.09,0.09-0.14,0.2-0.14,0.33
		v2.81c0,0.13,0.05,0.24,0.14,0.33c0.09,0.09,0.2,0.14,0.33,0.14h2.62l2.44,1.99c0.09,0.09,0.2,0.14,0.33,0.14
		c0.13,0,0.24-0.05,0.33-0.14c0.09-0.09,0.14-0.2,0.14-0.33v-7.06c0-0.13-0.05-0.24-0.14-0.33C-261.24,277.05-261.35,277-261.48,277
		L-261.48,277z"/>
	<path d="M-259.94,285c-0.18,0-0.32-0.14-0.32-0.32v-7.36c0-0.18,0.14-0.32,0.32-0.32h0.16c0.18,0,0.32,0.14,0.32,0.32v7.36
		c0,0.18-0.14,0.32-0.32,0.32H-259.94z"/>
</g>
</svg>
